<svg width="24" height="22" viewBox="0 0 30 20" fill="none" xmlns="http://www.w3.org/2000/svg">
<path d="M29.414 9.4293C29.3707 9.33437 28.3441 7.05508 26.0765 4.7875C23.0425 1.7582 19.2187 0.15625 15 0.15625C10.7812 0.15625 6.95739 1.7582 3.92692 4.7875C1.65935 7.05508 0.632784 9.33437 0.585909 9.4293C0.506518 9.60929 0.465515 9.80386 0.465515 10.0006C0.465515 10.1973 0.506518 10.3919 0.585909 10.5719C0.629269 10.668 1.65583 12.9461 3.92458 15.2137C6.95739 18.243 10.7812 19.8438 15 19.8438C19.2187 19.8438 23.0425 18.243 26.0718 15.2137C28.3406 12.9461 29.3672 10.668 29.4105 10.5719C29.4905 10.3921 29.5321 10.1977 29.5327 10.001C29.5333 9.80423 29.4929 9.60954 29.414 9.4293ZM24.0164 13.2965C21.5004 15.7738 18.4676 17.0312 15 17.0312C11.5324 17.0312 8.49958 15.7738 5.98708 13.2953C4.99842 12.3171 4.14799 11.2084 3.45935 10C4.14819 8.7921 4.99861 7.68384 5.98708 6.70586C8.50075 4.22617 11.5324 2.96875 15 2.96875C18.4676 2.96875 21.4992 4.22617 24.0129 6.70586C25.0014 7.68375 25.8519 8.79203 26.5406 10C25.8518 11.2083 25.0014 12.317 24.0129 13.2953L24.0164 13.2965ZM15 4.84375C13.9802 4.84375 12.9833 5.14616 12.1353 5.71273C11.2874 6.27931 10.6265 7.08461 10.2362 8.02679C9.84595 8.96897 9.74384 10.0057 9.9428 11.0059C10.1418 12.0061 10.6328 12.9249 11.354 13.646C12.0751 14.3671 12.9938 14.8582 13.994 15.0572C14.9943 15.2561 16.031 15.154 16.9732 14.7638C17.9154 14.3735 18.7207 13.7126 19.2872 12.8647C19.8538 12.0167 20.1562 11.0198 20.1562 10C20.1547 8.63295 19.6109 7.32234 18.6443 6.35569C17.6776 5.38904 16.367 4.8453 15 4.84375ZM15 12.3438C14.5364 12.3438 14.0833 12.2063 13.6979 11.9488C13.3124 11.6912 13.012 11.3252 12.8346 10.8969C12.6572 10.4687 12.6108 9.9974 12.7013 9.54276C12.7917 9.08811 13.0149 8.6705 13.3427 8.34272C13.6705 8.01494 14.0881 7.79172 14.5427 7.70128C14.9974 7.61085 15.4686 7.65726 15.8969 7.83466C16.3252 8.01205 16.6912 8.31245 16.9487 8.69788C17.2063 9.08331 17.3437 9.53645 17.3437 10C17.3437 10.6216 17.0968 11.2177 16.6573 11.6573C16.2177 12.0968 15.6216 12.3438 15 12.3438Z" fill="black"/>
</svg>
