<svg width="24" height="21" viewBox="0 0 28 26" fill="none" xmlns="http://www.w3.org/2000/svg">
<path d="M7.75 5.9525C9.64055 4.82911 11.8009 4.24063 14 4.25C21.8837 4.25 25.7087 11.3537 26.3875 12.76C26.4625 12.9137 26.4625 13.0862 26.3875 13.2412C25.9475 14.1512 24.1925 17.4437 20.875 19.655M16.5 21.5C15.6773 21.6677 14.8396 21.7514 14 21.75C6.11625 21.75 2.29125 14.6463 1.6125 13.24C1.57582 13.1649 1.55676 13.0824 1.55676 12.9987C1.55676 12.9151 1.57582 12.8326 1.6125 12.7575C1.88625 12.1925 2.6625 10.7175 4 9.15125M11.5 10.205C12.2144 9.56637 13.1462 9.22546 14.1041 9.25227C15.062 9.27908 15.9733 9.67156 16.6508 10.3492C17.3284 11.0267 17.7209 11.938 17.7477 12.8959C17.7745 13.8538 17.4336 14.7856 16.795 15.5M2.75 1.75L25.25 24.25" stroke="black" stroke-width="2.5" stroke-linecap="round" stroke-linejoin="round"/>
</svg>
