<svg width="18" height="24" viewBox="0 0 15 25" fill="none" xmlns="http://www.w3.org/2000/svg">
<path d="M12.5 0H2.5C1.83696 0 1.20107 0.263392 0.732233 0.732233C0.263392 1.20107 0 1.83696 0 2.5V22.5C0 23.163 0.263392 23.7989 0.732233 24.2678C1.20107 24.7366 1.83696 25 2.5 25H12.5C13.163 25 13.7989 24.7366 14.2678 24.2678C14.7366 23.7989 15 23.163 15 22.5V2.5C15 1.83696 14.7366 1.20107 14.2678 0.732233C13.7989 0.263392 13.163 0 12.5 0ZM8.75 23.75H6.25V22.5H8.75V23.75ZM12.5 21.25H2.5V3.75H12.5V21.25Z" fill="black"/>
</svg>
