<svg width="234" height="313" viewBox="0 0 234 313" fill="none" xmlns="http://www.w3.org/2000/svg">
<path fill-rule="evenodd" clip-rule="evenodd" d="M149.288 14.3479C152.177 24.3123 155.943 46.7098 152.101 50.2231H127.789C127.787 50.1828 127.784 50.1425 127.782 50.1024C118.771 49.1692 111.763 42.0203 111.763 33.3396V16.8659C111.763 7.55113 119.833 0 129.787 0H131.464C140.503 0 147.989 6.22748 149.288 14.3479Z" fill="#191847"/>
<path fill-rule="evenodd" clip-rule="evenodd" d="M121.204 30.194C117.342 25.951 114.727 20.7512 115.164 14.9247C116.423 -1.86314 141.396 1.82997 146.254 10.303C151.112 18.7761 150.535 40.2687 144.256 41.7831C141.753 42.387 136.419 40.9076 130.99 37.8458L134.398 60.4035H114.278L121.204 30.194Z" fill="#D4A181"/>
<path fill-rule="evenodd" clip-rule="evenodd" d="M126.643 27.3579C127.57 36.6757 127.199 47.3165 124.436 49.8424H100.125C98.7705 27.8197 111.861 36.3479 111.861 15.6129C112.678 14.8667 113.449 14.1281 114.212 13.4912L114.185 12.8814C118.395 4.81674 123.735 0.784424 130.207 0.784424C139.915 0.784424 142.979 5.01135 145.588 8.60008C143.637 14.8641 136.066 15.7929 129.339 19.6974C128.546 19.0945 127.535 18.7332 126.434 18.7332C123.887 18.7332 121.823 20.6649 121.823 23.0478C121.823 25.4306 123.887 27.3623 126.434 27.3623C126.504 27.3623 126.574 27.3608 126.643 27.3579Z" fill="#191847"/>
<path fill-rule="evenodd" clip-rule="evenodd" d="M81.9257 202.46C102.036 207.724 119.387 210.356 133.978 210.356C148.569 210.356 162.122 206.303 174.637 198.197C154.957 192.794 138.749 190.093 126.014 190.093C113.28 190.093 98.5834 194.215 81.9257 202.46Z" fill="#1F28CF"/>
<path fill-rule="evenodd" clip-rule="evenodd" d="M151.388 217.942C151.194 217.67 151.03 217.373 150.9 217.051C148.212 210.399 105.155 138.634 100.865 125.514H149.341C152.603 135.49 167.282 198.092 169.348 210.582C175.866 230.284 189.286 294.091 191 298.511C192.802 303.161 182.661 308.005 179.959 302.289C175.659 293.192 165.414 268.023 160.852 252.655C156.576 238.247 153.094 225.285 151.388 217.942Z" fill="#BA8B72"/>
<path fill-rule="evenodd" clip-rule="evenodd" d="M111.727 226.704C92.042 231.36 20.0381 239.777 15.0968 241.097C10.0138 242.455 5.55704 232.651 11.8399 230.527C21.8369 227.148 49.3833 219.34 66.0848 216.154C79.5185 213.591 91.7769 211.5 100.007 210.275C99.3096 188.642 96.1224 136.727 98.2115 125.514H141.104C139.101 136.266 122.167 214.721 119.019 222.574C118.02 225.378 115.04 226.617 111.727 226.704Z" fill="#D4A181"/>
<path fill-rule="evenodd" clip-rule="evenodd" d="M12.2962 227.916C9.66774 227.459 7.74149 227.331 6.51742 227.533C5.02867 227.779 2.89994 228.369 0.131227 229.305C0.435755 230.921 3.17259 245.445 8.34174 272.878C12.5554 273.35 14.5919 272.34 14.4512 269.848C14.3105 267.355 14.2166 265.281 14.1696 263.625L20.0018 241.781C20.114 241.361 19.8409 240.935 19.3917 240.83C19.384 240.828 19.3763 240.826 19.3685 240.825L15.7486 240.08C14.197 238.007 13.2882 236.265 13.0221 234.853C12.8059 233.706 13.0025 232.04 13.6119 229.855C13.8457 229.017 13.309 228.16 12.413 227.941C12.3744 227.931 12.3354 227.923 12.2962 227.916Z" fill="#E4E4E4"/>
<path fill-rule="evenodd" clip-rule="evenodd" d="M176.882 301.548C175.944 303.891 175.475 305.644 175.475 306.807C175.475 308.222 175.727 310.286 176.231 313C177.984 313 193.745 313 223.513 313C224.742 309.199 224.032 307.147 221.385 306.844C218.738 306.541 216.539 306.267 214.788 306.023L192.811 296.855C192.389 296.679 191.893 296.856 191.704 297.252C191.701 297.259 191.698 297.266 191.695 297.272L190.282 300.479C187.832 301.549 185.84 302.084 184.308 302.084C183.063 302.084 181.344 301.613 179.151 300.673C178.309 300.311 177.314 300.657 176.928 301.445C176.911 301.479 176.896 301.513 176.882 301.548Z" fill="#E4E4E4"/>
<path fill-rule="evenodd" clip-rule="evenodd" d="M98.3501 125.514C117.251 120.453 135.135 120.453 152.002 125.514C157.87 150.567 172.129 160.511 174.637 198.923C146.134 212.175 110.925 189.471 81.5838 202.395C73.2006 184.318 84.937 140.783 98.3501 125.514Z" fill="#2B44FF"/>
<path fill-rule="evenodd" clip-rule="evenodd" d="M179.667 94.3792L212.766 90.1544C219.387 86.7082 225.478 84.3751 231.039 83.1553C232.604 83.1125 235.094 83.6449 231.385 86.5381C227.676 89.4313 223.913 92.6318 224.574 94.1758C225.235 95.7199 228.684 95.1454 229.255 97.5203C229.636 99.1035 224.038 99.3608 212.462 98.292L185.605 108.256L179.667 94.3792ZM75.6903 101.548L94.0472 101.613C73.9183 144 63.4228 166.194 62.5607 168.193C60.6209 172.691 64.7258 179.543 66.4812 183.224C60.7639 185.618 61.373 176.752 54.1608 179.892C47.5777 182.758 42.57 187.951 34.9643 183.56C34.0292 183.02 33.0045 180.987 35.4803 179.398C41.6484 175.441 50.537 168.514 51.738 166.234C53.3758 163.125 61.3599 141.563 75.6903 101.548Z" fill="#D4A181"/>
<path fill-rule="evenodd" clip-rule="evenodd" d="M125.972 47.0678L140.345 47.9637C143.885 77.9311 163.166 96.8597 206.334 90.4516L212.069 129.043C171.722 133.922 136.337 118.807 129.085 77.8802C127.207 67.2856 125.725 56.2599 125.972 47.0678Z" fill="#AFB9C5"/>
<path fill-rule="evenodd" clip-rule="evenodd" d="M118.881 43.1579L140.658 47.8249C140.658 82.874 152.589 105.236 158.709 131.005H99.8957C99.0672 139.909 98.5584 149.061 98.2933 158.461H54.2561C64.2352 108.777 85.2976 70.3379 117.443 43.1454H118.87L118.881 43.1579Z" fill="#C5CFD6"/>
<path fill-rule="evenodd" clip-rule="evenodd" d="M109.175 81.0029C107.659 102.843 108.551 119.511 111.849 131.005H99.8956C101.537 113.366 104.433 96.6982 109.175 81.0029Z" fill="black" fill-opacity="0.1"/>
</svg>
